<svg data-v-423bf9ae="" xmlns="http://www.w3.org/2000/svg" viewBox="0 0 590.6333528917388 60" class="font"><!----><!----><!----><g data-v-423bf9ae="" id="fc288091-00a9-46d0-8164-06899f0a0dcb" fill="white" transform="matrix(5.3523639425355505,0,0,5.3523639425355505,-4.870654316325556,-6.743978278132097)"><path d="M4.55 1.26L4.55 1.26Q5.57 1.26 6.43 1.75L6.43 1.75L6.43 1.75Q7.28 2.24 7.69 2.93L7.69 2.93L7.69 2.93Q7.74 3.02 7.74 3.15L7.74 3.15L7.74 3.15Q7.74 3.26 7.68 3.35L7.68 3.35L7.68 3.35Q7.62 3.44 7.50 3.50L7.50 3.50L7.50 3.50Q7.45 3.53 7.34 3.53L7.34 3.53L7.34 3.53Q7.08 3.53 6.94 3.32L6.94 3.32L6.94 3.32Q6.12 2.10 4.55 2.10L4.55 2.10L4.55 2.10Q3.39 2.10 2.74 2.63L2.74 2.63L2.74 2.63Q2.09 3.15 2.09 4.09L2.09 4.09L2.09 4.09Q2.09 4.87 2.73 5.40L2.73 5.40L2.73 5.40Q3.37 5.94 4.72 6.16L4.72 6.16L4.72 6.16Q6.48 6.45 7.29 7.24L7.29 7.24L7.29 7.24Q8.11 8.04 8.11 9.32L8.11 9.32L8.11 9.32Q8.11 10.29 7.68 11.00L7.68 11.00L7.68 11.00Q7.25 11.72 6.48 12.10L6.48 12.10L6.48 12.10Q5.70 12.47 4.68 12.47L4.68 12.47L4.68 12.47Q3.36 12.47 2.39 11.93L2.39 11.93L2.39 11.93Q1.43 11.40 0.95 10.46L0.95 10.46L0.95 10.46Q0.91 10.37 0.91 10.29L0.91 10.29L0.91 10.29Q0.91 10.12 1.03 10.01L1.03 10.01L1.03 10.01Q1.15 9.90 1.34 9.90L1.34 9.90L1.34 9.90Q1.62 9.90 1.75 10.16L1.75 10.16L1.75 10.16Q2.13 10.86 2.88 11.25L2.88 11.25L2.88 11.25Q3.63 11.63 4.68 11.63L4.68 11.63L4.68 11.63Q5.88 11.63 6.57 11.03L6.57 11.03L6.57 11.03Q7.27 10.43 7.27 9.32L7.27 9.32L7.27 9.32Q7.27 8.37 6.59 7.75L6.59 7.75L6.59 7.75Q5.91 7.13 4.58 6.94L4.58 6.94L4.58 6.94Q3.02 6.72 2.14 5.93L2.14 5.93L2.14 5.93Q1.25 5.14 1.25 4.00L1.25 4.00L1.25 4.00Q1.25 3.19 1.66 2.57L1.66 2.57L1.66 2.57Q2.07 1.95 2.82 1.60L2.82 1.60L2.82 1.60Q3.57 1.26 4.55 1.26L4.55 1.26ZM13.78 4.59L13.78 4.59Q14.87 4.59 15.76 5.10L15.76 5.10L15.76 5.10Q16.66 5.61 17.17 6.51L17.17 6.51L17.17 6.51Q17.68 7.41 17.68 8.51L17.68 8.51L17.68 11.91L17.68 11.91Q17.68 12.10 17.57 12.21L17.57 12.21L17.57 12.21Q17.46 12.33 17.26 12.33L17.26 12.33L17.26 12.33Q17.08 12.33 16.96 12.21L16.96 12.21L16.96 12.21Q16.84 12.10 16.84 11.91L16.84 11.91L16.84 10.82L16.84 10.82Q16.38 11.56 15.57 11.99L15.57 11.99L15.57 11.99Q14.77 12.42 13.78 12.42L13.78 12.42L13.78 12.42Q12.67 12.42 11.77 11.91L11.77 11.91L11.77 11.91Q10.88 11.40 10.37 10.50L10.37 10.50L10.37 10.50Q9.86 9.60 9.86 8.51L9.86 8.51L9.86 8.51Q9.86 7.41 10.37 6.51L10.37 6.51L10.37 6.51Q10.88 5.61 11.77 5.10L11.77 5.10L11.77 5.10Q12.67 4.59 13.78 4.59L13.78 4.59ZM13.78 11.63L13.78 11.63Q14.64 11.63 15.34 11.23L15.34 11.23L15.34 11.23Q16.04 10.82 16.44 10.11L16.44 10.11L16.44 10.11Q16.84 9.39 16.84 8.51L16.84 8.51L16.84 8.51Q16.84 7.63 16.44 6.92L16.44 6.92L16.44 6.92Q16.04 6.20 15.34 5.79L15.34 5.79L15.34 5.79Q14.64 5.38 13.78 5.38L13.78 5.38L13.78 5.38Q12.91 5.38 12.21 5.79L12.21 5.79L12.21 5.79Q11.51 6.20 11.10 6.92L11.10 6.92L11.10 6.92Q10.70 7.63 10.70 8.51L10.70 8.51L10.70 8.51Q10.70 9.39 11.10 10.11L11.10 10.11L11.10 10.11Q11.51 10.82 12.21 11.23L12.21 11.23L12.21 11.23Q12.91 11.63 13.78 11.63L13.78 11.63ZM27.86 4.58L27.86 4.58Q28.70 4.58 29.36 5.00L29.36 5.00L29.36 5.00Q30.02 5.42 30.38 6.17L30.38 6.17L30.38 6.17Q30.74 6.92 30.74 7.87L30.74 7.87L30.74 11.91L30.74 11.91Q30.74 12.10 30.63 12.21L30.63 12.21L30.63 12.21Q30.52 12.33 30.32 12.33L30.32 12.33L30.32 12.33Q30.14 12.33 30.02 12.21L30.02 12.21L30.02 12.21Q29.90 12.10 29.90 11.91L29.90 11.91L29.90 7.87L29.90 7.87Q29.90 6.79 29.33 6.10L29.33 6.10L29.33 6.10Q28.76 5.42 27.86 5.42L27.86 5.42L27.86 5.42Q26.88 5.42 26.28 6.06L26.28 6.06L26.28 6.06Q25.68 6.71 25.70 7.77L25.70 7.77L25.70 7.87L25.70 11.91L25.70 11.91Q25.70 12.10 25.59 12.21L25.59 12.21L25.59 12.21Q25.48 12.33 25.28 12.33L25.28 12.33L25.28 12.33Q25.10 12.33 24.98 12.21L24.98 12.21L24.98 12.21Q24.86 12.10 24.86 11.91L24.86 11.91L24.86 7.87L24.86 7.87Q24.86 6.79 24.29 6.10L24.29 6.10L24.29 6.10Q23.72 5.42 22.82 5.42L22.82 5.42L22.82 5.42Q21.85 5.42 21.24 6.03L21.24 6.03L21.24 6.03Q20.62 6.65 20.62 7.63L20.62 7.63L20.62 11.91L20.62 11.91Q20.62 12.10 20.51 12.21L20.51 12.21L20.51 12.21Q20.40 12.33 20.20 12.33L20.20 12.33L20.20 12.33Q20.02 12.33 19.90 12.21L19.90 12.21L19.90 12.21Q19.78 12.10 19.78 11.91L19.78 11.91L19.78 5.10L19.78 5.10Q19.78 4.90 19.90 4.79L19.90 4.79L19.90 4.79Q20.02 4.68 20.20 4.68L20.20 4.68L20.20 4.68Q20.40 4.68 20.51 4.79L20.51 4.79L20.51 4.79Q20.62 4.90 20.62 5.10L20.62 5.10L20.62 5.64L20.62 5.64Q21.01 5.14 21.59 4.86L21.59 4.86L21.59 4.86Q22.16 4.58 22.82 4.58L22.82 4.58L22.82 4.58Q23.63 4.58 24.28 4.98L24.28 4.98L24.28 4.98Q24.92 5.38 25.30 6.08L25.30 6.08L25.30 6.08Q25.68 5.38 26.35 4.98L26.35 4.98L26.35 4.98Q27.02 4.58 27.86 4.58L27.86 4.58ZM33.40 5.10L33.40 5.10Q33.40 4.90 33.52 4.79L33.52 4.79L33.52 4.79Q33.64 4.68 33.82 4.68L33.82 4.68L33.82 4.68Q34.02 4.68 34.13 4.79L34.13 4.79L34.13 4.79Q34.24 4.90 34.24 5.10L34.24 5.10L34.24 11.91L34.24 11.91Q34.24 12.10 34.13 12.21L34.13 12.21L34.13 12.21Q34.02 12.33 33.82 12.33L33.82 12.33L33.82 12.33Q33.64 12.33 33.52 12.21L33.52 12.21L33.52 12.21Q33.40 12.10 33.40 11.91L33.40 11.91L33.40 5.10ZM33.82 1.76L33.82 1.76Q34.09 1.76 34.28 1.93L34.28 1.93L34.28 1.93Q34.47 2.10 34.47 2.41L34.47 2.41L34.47 2.41Q34.47 2.69 34.28 2.88L34.28 2.88L34.28 2.88Q34.09 3.07 33.81 3.07L33.81 3.07L33.81 3.07Q33.53 3.07 33.35 2.88L33.35 2.88L33.35 2.88Q33.17 2.69 33.17 2.41L33.17 2.41L33.17 2.41Q33.17 2.10 33.36 1.93L33.36 1.93L33.36 1.93Q33.56 1.76 33.82 1.76L33.82 1.76ZM51.81 1.40L51.81 1.40Q52.00 1.40 52.11 1.52L52.11 1.52L52.11 1.52Q52.22 1.64 52.22 1.82L52.22 1.82L52.22 11.91L52.22 11.91Q52.22 12.10 52.11 12.21L52.11 12.21L52.11 12.21Q52.00 12.33 51.81 12.33L51.81 12.33L51.81 12.33Q51.63 12.33 51.51 12.21L51.51 12.21L51.51 12.21Q51.38 12.10 51.38 11.91L51.38 11.91L51.38 3.33L47.12 12.00L47.12 12.00Q47.03 12.19 46.76 12.19L46.76 12.19L46.76 12.19Q46.51 12.19 46.37 11.93L46.37 11.93L42.13 3.46L42.13 11.91L42.13 11.91Q42.13 12.10 42.01 12.21L42.01 12.21L42.01 12.21Q41.89 12.33 41.71 12.33L41.71 12.33L41.71 12.33Q41.52 12.33 41.40 12.21L41.40 12.21L41.40 12.21Q41.29 12.10 41.29 11.91L41.29 11.91L41.29 1.82L41.29 1.82Q41.29 1.64 41.40 1.52L41.40 1.52L41.40 1.52Q41.52 1.40 41.71 1.40L41.71 1.40L41.71 1.40Q41.99 1.40 42.08 1.61L42.08 1.61L46.79 10.91L51.44 1.61L51.44 1.61Q51.56 1.40 51.81 1.40L51.81 1.40ZM61.36 4.68L61.36 4.68Q61.56 4.68 61.67 4.79L61.67 4.79L61.67 4.79Q61.78 4.90 61.78 5.10L61.78 5.10L61.78 11.91L61.78 11.91Q61.78 12.10 61.67 12.21L61.67 12.21L61.67 12.21Q61.56 12.33 61.36 12.33L61.36 12.33L61.36 12.33Q61.18 12.33 61.06 12.21L61.06 12.21L61.06 12.21Q60.94 12.10 60.94 11.91L60.94 11.91L60.94 11.19L60.94 11.19Q60.47 11.77 59.78 12.10L59.78 12.10L59.78 12.10Q59.09 12.43 58.28 12.43L58.28 12.43L58.28 12.43Q57.26 12.43 56.45 12.01L56.45 12.01L56.45 12.01Q55.65 11.59 55.20 10.79L55.20 10.79L55.20 10.79Q54.74 9.98 54.74 8.86L54.74 8.86L54.74 5.10L54.74 5.10Q54.74 4.91 54.86 4.79L54.86 4.79L54.86 4.79Q54.98 4.68 55.16 4.68L55.16 4.68L55.16 4.68Q55.34 4.68 55.46 4.79L55.46 4.79L55.46 4.79Q55.58 4.91 55.58 5.10L55.58 5.10L55.58 8.86L55.58 8.86Q55.58 10.19 56.33 10.89L56.33 10.89L56.33 10.89Q57.08 11.59 58.28 11.59L58.28 11.59L58.28 11.59Q59.02 11.59 59.63 11.30L59.63 11.30L59.63 11.30Q60.24 11.02 60.59 10.51L60.59 10.51L60.59 10.51Q60.94 10.00 60.94 9.38L60.94 9.38L60.94 5.10L60.94 5.10Q60.94 4.90 61.06 4.79L61.06 4.79L61.06 4.79Q61.18 4.68 61.36 4.68L61.36 4.68ZM67.80 4.58L67.80 4.58Q68.82 4.58 69.63 5.00L69.63 5.00L69.63 5.00Q70.43 5.42 70.89 6.22L70.89 6.22L70.89 6.22Q71.34 7.03 71.34 8.15L71.34 8.15L71.34 11.91L71.34 11.91Q71.34 12.10 71.22 12.21L71.22 12.21L71.22 12.21Q71.11 12.33 70.92 12.33L70.92 12.33L70.92 12.33Q70.74 12.33 70.62 12.21L70.62 12.21L70.62 12.21Q70.50 12.10 70.50 11.91L70.50 11.91L70.50 8.15L70.50 8.15Q70.50 6.82 69.75 6.12L69.75 6.12L69.75 6.12Q69.01 5.42 67.80 5.42L67.80 5.42L67.80 5.42Q67.06 5.42 66.45 5.70L66.45 5.70L66.45 5.70Q65.84 5.99 65.49 6.50L65.49 6.50L65.49 6.50Q65.14 7.01 65.14 7.63L65.14 7.63L65.14 11.91L65.14 11.91Q65.14 12.10 65.03 12.21L65.03 12.21L65.03 12.21Q64.92 12.33 64.72 12.33L64.72 12.33L64.72 12.33Q64.54 12.33 64.42 12.21L64.42 12.21L64.42 12.21Q64.30 12.10 64.30 11.91L64.30 11.91L64.30 1.82L64.30 1.82Q64.30 1.62 64.42 1.51L64.42 1.51L64.42 1.51Q64.54 1.40 64.72 1.40L64.72 1.40L64.72 1.40Q64.92 1.40 65.03 1.51L65.03 1.51L65.03 1.51Q65.14 1.62 65.14 1.82L65.14 1.82L65.14 5.82L65.14 5.82Q65.62 5.24 66.30 4.91L66.30 4.91L66.30 4.91Q66.99 4.58 67.80 4.58L67.80 4.58ZM77.18 11.48L77.18 11.48Q77.38 11.48 77.50 11.60L77.50 11.60L77.50 11.60Q77.62 11.72 77.62 11.91L77.62 11.91L77.62 11.91Q77.62 12.10 77.50 12.21L77.50 12.21L77.50 12.21Q77.38 12.33 77.18 12.33L77.18 12.33L76.86 12.33L76.86 12.33Q76.09 12.33 75.49 11.98L75.49 11.98L75.49 11.98Q74.89 11.63 74.55 11.03L74.55 11.03L74.55 11.03Q74.21 10.42 74.21 9.65L74.21 9.65L74.21 5.71L73.12 5.71L73.12 5.71Q72.95 5.71 72.85 5.61L72.85 5.61L72.85 5.61Q72.74 5.50 72.74 5.33L72.74 5.33L72.74 5.33Q72.74 5.17 72.85 5.06L72.85 5.06L72.85 5.06Q72.95 4.96 73.12 4.96L73.12 4.96L74.21 4.96L74.21 2.67L74.21 2.67Q74.21 2.48 74.33 2.36L74.33 2.36L74.33 2.36Q74.45 2.24 74.63 2.24L74.63 2.24L74.63 2.24Q74.83 2.24 74.95 2.36L74.95 2.36L74.95 2.36Q75.07 2.48 75.07 2.67L75.07 2.67L75.07 4.96L76.92 4.96L76.92 4.96Q77.08 4.96 77.19 5.06L77.19 5.06L77.19 5.06Q77.29 5.17 77.29 5.33L77.29 5.33L77.29 5.33Q77.29 5.50 77.19 5.61L77.19 5.61L77.19 5.61Q77.08 5.71 76.92 5.71L76.92 5.71L75.07 5.71L75.07 9.65L75.07 9.65Q75.07 10.46 75.57 10.97L75.57 10.97L75.57 10.97Q76.08 11.48 76.87 11.48L76.87 11.48L77.18 11.48ZM82.87 4.59L82.87 4.59Q83.96 4.59 84.85 5.10L84.85 5.10L84.85 5.10Q85.75 5.61 86.26 6.51L86.26 6.51L86.26 6.51Q86.77 7.41 86.77 8.51L86.77 8.51L86.77 11.91L86.77 11.91Q86.77 12.10 86.66 12.21L86.66 12.21L86.66 12.21Q86.55 12.33 86.35 12.33L86.35 12.33L86.35 12.33Q86.17 12.33 86.05 12.21L86.05 12.21L86.05 12.21Q85.93 12.10 85.93 11.91L85.93 11.91L85.93 10.82L85.93 10.82Q85.47 11.56 84.66 11.99L84.66 11.99L84.66 11.99Q83.86 12.42 82.87 12.42L82.87 12.42L82.87 12.42Q81.76 12.42 80.86 11.91L80.86 11.91L80.86 11.91Q79.97 11.40 79.46 10.50L79.46 10.50L79.46 10.50Q78.95 9.60 78.95 8.51L78.95 8.51L78.95 8.51Q78.95 7.41 79.46 6.51L79.46 6.51L79.46 6.51Q79.97 5.61 80.86 5.10L80.86 5.10L80.86 5.10Q81.76 4.59 82.87 4.59L82.87 4.59ZM82.87 11.63L82.87 11.63Q83.73 11.63 84.43 11.23L84.43 11.23L84.43 11.23Q85.13 10.82 85.53 10.11L85.53 10.11L85.53 10.11Q85.93 9.39 85.93 8.51L85.93 8.51L85.93 8.51Q85.93 7.63 85.53 6.92L85.53 6.92L85.53 6.92Q85.13 6.20 84.43 5.79L84.43 5.79L84.43 5.79Q83.73 5.38 82.87 5.38L82.87 5.38L82.87 5.38Q82.00 5.38 81.30 5.79L81.30 5.79L81.30 5.79Q80.60 6.20 80.19 6.92L80.19 6.92L80.19 6.92Q79.79 7.63 79.79 8.51L79.79 8.51L79.79 8.51Q79.79 9.39 80.19 10.11L80.19 10.11L80.19 10.11Q80.60 10.82 81.30 11.23L81.30 11.23L81.30 11.23Q82.00 11.63 82.87 11.63L82.87 11.63ZM91.49 4.59L91.49 4.59Q93.25 4.59 94.16 5.85L94.16 5.85L94.16 5.85Q94.25 5.95 94.25 6.09L94.25 6.09L94.25 6.09Q94.25 6.29 94.02 6.41L94.02 6.41L94.02 6.41Q93.88 6.47 93.81 6.47L93.81 6.47L93.81 6.47Q93.60 6.47 93.46 6.29L93.46 6.29L93.46 6.29Q92.75 5.38 91.46 5.38L91.46 5.38L91.46 5.38Q90.61 5.38 90.10 5.75L90.10 5.75L90.10 5.75Q89.60 6.12 89.60 6.66L89.60 6.66L89.60 6.66Q89.60 7.22 90.08 7.56L90.08 7.56L90.08 7.56Q90.57 7.90 91.70 8.06L91.70 8.06L91.70 8.06Q93.18 8.27 93.83 8.86L93.83 8.86L93.83 8.86Q94.49 9.44 94.49 10.26L94.49 10.26L94.49 10.26Q94.49 10.91 94.07 11.40L94.07 11.40L94.07 11.40Q93.66 11.89 92.97 12.15L92.97 12.15L92.97 12.15Q92.29 12.42 91.48 12.42L91.48 12.42L91.48 12.42Q90.66 12.42 89.89 12.13L89.89 12.13L89.89 12.13Q89.12 11.84 88.62 11.26L88.62 11.26L88.62 11.26Q88.52 11.14 88.52 11.00L88.52 11.00L88.52 11.00Q88.52 10.81 88.70 10.68L88.70 10.68L88.70 10.68Q88.79 10.61 88.94 10.61L88.94 10.61L88.94 10.61Q89.14 10.61 89.26 10.77L89.26 10.77L89.26 10.77Q89.96 11.62 91.52 11.62L91.52 11.62L91.52 11.62Q92.62 11.62 93.15 11.23L93.15 11.23L93.15 11.23Q93.67 10.84 93.67 10.22L93.67 10.22L93.67 10.22Q93.67 9.11 91.53 8.81L91.53 8.81L91.53 8.81Q90.17 8.61 89.48 8.06L89.48 8.06L89.48 8.06Q88.79 7.52 88.79 6.75L88.79 6.75L88.79 6.75Q88.79 5.73 89.54 5.16L89.54 5.16L89.54 5.16Q90.29 4.59 91.49 4.59L91.49 4.59ZM96.66 5.10L96.66 5.10Q96.66 4.90 96.78 4.79L96.78 4.79L96.78 4.79Q96.89 4.68 97.08 4.68L97.08 4.68L97.08 4.68Q97.27 4.68 97.38 4.79L97.38 4.79L97.38 4.79Q97.50 4.90 97.50 5.10L97.50 5.10L97.50 11.91L97.50 11.91Q97.50 12.10 97.38 12.21L97.38 12.21L97.38 12.21Q97.27 12.33 97.08 12.33L97.08 12.33L97.08 12.33Q96.89 12.33 96.78 12.21L96.78 12.21L96.78 12.21Q96.66 12.10 96.66 11.91L96.66 11.91L96.66 5.10ZM97.08 1.76L97.08 1.76Q97.34 1.76 97.53 1.93L97.53 1.93L97.53 1.93Q97.72 2.10 97.72 2.41L97.72 2.41L97.72 2.41Q97.72 2.69 97.53 2.88L97.53 2.88L97.53 2.88Q97.34 3.07 97.06 3.07L97.06 3.07L97.06 3.07Q96.78 3.07 96.60 2.88L96.60 2.88L96.60 2.88Q96.42 2.69 96.42 2.41L96.42 2.41L96.42 2.41Q96.42 2.10 96.61 1.93L96.61 1.93L96.61 1.93Q96.81 1.76 97.08 1.76L97.08 1.76ZM108.37 4.58L108.37 4.58Q109.21 4.58 109.87 5.00L109.87 5.00L109.87 5.00Q110.53 5.42 110.89 6.17L110.89 6.17L110.89 6.17Q111.26 6.92 111.26 7.87L111.26 7.87L111.26 11.91L111.26 11.91Q111.26 12.10 111.15 12.21L111.15 12.21L111.15 12.21Q111.03 12.33 110.84 12.33L110.84 12.33L110.84 12.33Q110.66 12.33 110.54 12.21L110.54 12.21L110.54 12.21Q110.42 12.10 110.42 11.91L110.42 11.91L110.42 7.87L110.42 7.87Q110.42 6.79 109.84 6.10L109.84 6.10L109.84 6.10Q109.27 5.42 108.37 5.42L108.37 5.42L108.37 5.42Q107.39 5.42 106.79 6.06L106.79 6.06L106.79 6.06Q106.19 6.71 106.22 7.77L106.22 7.77L106.22 7.87L106.22 11.91L106.22 11.91Q106.22 12.10 106.11 12.21L106.11 12.21L106.11 12.21Q105.99 12.33 105.80 12.33L105.80 12.33L105.80 12.33Q105.62 12.33 105.50 12.21L105.50 12.21L105.50 12.21Q105.38 12.10 105.38 11.91L105.38 11.91L105.38 7.87L105.38 7.87Q105.38 6.79 104.80 6.10L104.80 6.10L104.80 6.10Q104.23 5.42 103.33 5.42L103.33 5.42L103.33 5.42Q102.37 5.42 101.75 6.03L101.75 6.03L101.75 6.03Q101.14 6.65 101.14 7.63L101.14 7.63L101.14 11.91L101.14 11.91Q101.14 12.10 101.02 12.21L101.02 12.21L101.02 12.21Q100.91 12.33 100.72 12.33L100.72 12.33L100.72 12.33Q100.53 12.33 100.42 12.21L100.42 12.21L100.42 12.21Q100.30 12.10 100.30 11.91L100.30 11.91L100.30 5.10L100.30 5.10Q100.30 4.90 100.42 4.79L100.42 4.79L100.42 4.79Q100.53 4.68 100.72 4.68L100.72 4.68L100.72 4.68Q100.91 4.68 101.02 4.79L101.02 4.79L101.02 4.79Q101.14 4.90 101.14 5.10L101.14 5.10L101.14 5.64L101.14 5.64Q101.53 5.14 102.10 4.86L102.10 4.86L102.10 4.86Q102.68 4.58 103.33 4.58L103.33 4.58L103.33 4.58Q104.15 4.58 104.79 4.98L104.79 4.98L104.79 4.98Q105.43 5.38 105.81 6.08L105.81 6.08L105.81 6.08Q106.19 5.38 106.86 4.98L106.86 4.98L106.86 4.98Q107.53 4.58 108.37 4.58L108.37 4.58Z"></path></g><!----><!----></svg>